# WaveFront *.obj file (generated by CINEMA 4D)

mtllib ./CPU_model_created_by_windows_solution.mtl

v -83.11795806884766 28.90320014953613 -0.00877952575684
v -83.33202362060547 28.90894317626953 -0.01625171862543
v -83.13095092773438 28.90234565734863 0.36276271939278
v -83.34501647949219 28.90808868408203 0.3552905023098
v -83.1290283203125 28.96689224243164 0.3573269546032
v -83.34309387207031 28.97263526916504 0.34985476732254
v -83.12677001953125 29.02950286865234 0.34076723456383
v -83.34083557128906 29.03524780273438 0.33329504728317
v -83.12424468994141 29.08827781677246 0.31358671188354
v -83.33831024169922 29.09402084350586 0.30611452460289
v -83.12152862548828 29.14142799377441 0.27661123871803
v -83.33559417724609 29.14717102050781 0.26913905143738
v -83.11870574951172 29.18733978271484 0.23096433281898
v -83.33277130126953 29.19308280944824 0.22349214553833
v -83.11585235595703 29.22461891174316 0.17803293466568
v -83.32991790771484 29.23036193847656 0.17056074738503
v -83.11307525634766 29.25213050842285 0.11942532658577
v -83.32713317871094 29.25787544250488 0.11195313185453
v -83.11043548583984 29.26904106140137 0.05692227929831
v -83.32450103759766 29.27478408813477 0.04945008456707
v -83.1080322265625 29.27483558654785 -0.00757708633319
v -83.32209777832031 29.28057861328125 -0.01504927873611
v -83.10592651367188 29.26933860778809 -0.07211298495531
v -83.31999206542969 29.27508163452148 -0.07958517968655
v -83.10418701171875 29.25271606445312 -0.13472452759743
v -83.31825256347656 29.25845909118652 -0.14219672977924
v -83.10286712646484 29.22547340393066 -0.19350929558277
v -83.31692504882812 29.23121643066406 -0.20098149776459
v -83.10200500488281 29.18843841552734 -0.24668115377426
v -83.31606292724609 29.19418334960938 -0.25415334105492
v -83.10162353515625 29.14273834228516 -0.29262447357178
v -83.31568908691406 29.14848136901855 -0.30009666085243
v -83.10174560546875 29.08975791931152 -0.32994332909584
v -83.31581115722656 29.09550285339355 -0.3374155163765
v -83.10235595703125 29.0311107635498 -0.35750377178192
v -83.31642150878906 29.0368537902832 -0.36497595906258
v -83.10343933105469 28.96857643127441 -0.37446838617325
v -83.3175048828125 28.97431945800781 -0.38194060325623
v -83.10496520996094 28.90405464172363 -0.38032177090645
v -83.31903076171875 28.90979957580566 -0.3877939581871
v -83.10688781738281 28.83950805664062 -0.37488600611687
v -83.32095336914062 28.84525108337402 -0.38235819339752
v -83.10914611816406 28.77689552307129 -0.3583262860775
v -83.32321166992188 28.78264045715332 -0.36579847335815
v -83.11167144775391 28.7181224822998 -0.33114576339722
v -83.32573699951172 28.7238655090332 -0.33861795067787
v -83.11438751220703 28.66497230529785 -0.2941702902317
v -83.32845306396484 28.67071533203125 -0.30164250731468
v -83.11721801757812 28.61906051635742 -0.24852339923382
v -83.33128356933594 28.62480354309082 -0.25599557161331
v -83.12006378173828 28.5817813873291 -0.19559198617935
v -83.33412933349609 28.5875244140625 -0.20306417346001
v -83.12284851074219 28.55426788330078 -0.13698437809944
v -83.3369140625 28.56001281738281 -0.1444565653801
v -83.12548065185547 28.5373592376709 -0.07448133081198
v -83.33954620361328 28.5431022644043 -0.08195352554321
v -83.12789154052734 28.53156471252441 -0.00998196564615
v -83.34195709228516 28.53730773925781 -0.01745415851474
v -83.12999725341797 28.53706169128418 0.05455393344164
v -83.34406280517578 28.54280471801758 0.04708174243569
v -83.13173675537109 28.55368423461914 0.11716547608376
v -83.34580230712891 28.55942726135254 0.10969328135252
v -83.133056640625 28.5809268951416 0.1759502440691
v -83.34712219238281 28.586669921875 0.16847805678844
v -83.13391876220703 28.61795997619629 0.22912210226059
v -83.34798431396484 28.62370491027832 0.22164990007877
v -83.13429260253906 28.66366195678711 0.27506542205811
v -83.34835815429688 28.66940498352051 0.26759323477745
v -83.13417816162109 28.71664237976074 0.31238427758217
v -83.34824371337891 28.72238540649414 0.30491206049919
v -83.13356781005859 28.77528953552246 0.33994472026825
v -83.34762573242188 28.78103256225586 0.33247250318527
v -83.13247680664062 28.83782386779785 0.35690933465958
v -83.34654235839844 28.84356689453125 0.34943714737892
v -83.399658203125 42.76520919799805 3.73569107055664
v -83.46977996826172 42.76059341430664 5.74096584320068
v -83.45940399169922 43.10896301269531 5.71162796020508
v -83.44721984863281 43.4468879699707 5.62225246429443
v -83.43358612060547 43.76410293579102 5.47555494308472
v -83.41892242431641 44.05096435546875 5.27599239349365
v -83.40367889404297 44.29875946044922 5.02962827682495
v -83.3883056640625 44.49995803833008 4.7439489364624
v -83.37327575683594 44.64844512939453 4.42763376235962
v -83.35905456542969 44.73971557617188 4.0902943611145
v -83.34606170654297 44.77098846435547 3.74218082427979
v -83.33470153808594 44.74131774902344 3.39386987686157
v -83.3253173828125 44.65160369873047 3.05594515800476
v -83.31818389892578 44.50457000732422 2.73867392539978
v -83.31352996826172 44.30469131469727 2.4516966342926
v -83.31149291992188 44.05803298950195 2.20373296737671
v -83.3121337890625 43.7720947265625 2.00231695175171
v -83.31543731689453 43.45556259155273 1.85356879234314
v -83.32129669189453 43.1180534362793 1.76200783252716
v -83.32953643798828 42.76982116699219 1.7304162979126
v -83.33991241455078 42.42145156860352 1.75975394248962
v -83.35209655761719 42.08352661132812 1.84912943840027
v -83.36573028564453 41.76631546020508 1.99582719802856
v -83.38039398193359 41.47945404052734 2.19538998603821
v -83.39563751220703 41.23165893554688 2.44175386428833
v -83.4110107421875 41.03046035766602 2.72743344306946
v -83.42603302001953 40.8819694519043 3.04374837875366
v -83.44026184082031 40.79070281982422 3.3810875415802
v -83.45325469970703 40.75942993164062 3.7292013168335
v -83.46461486816406 40.78910064697266 4.07751226425171
v -83.4739990234375 40.87881469726562 4.4154372215271
v -83.48113250732422 41.02584457397461 4.73270797729492
v -83.48578643798828 41.22572708129883 5.0196852684021
v -83.48782348632812 41.47238159179688 5.26764917373657
v -83.4871826171875 41.75832366943359 5.46906518936157
v -83.48387908935547 42.07485580444336 5.61781311035156
v -83.47801971435547 42.4123649597168 5.70937442779541
v -83.34571838378906 33.15199661254883 2.693763256073
v -83.38454437255859 33.14944458007812 3.80409121513367
v -83.37879943847656 33.34233856201172 3.78784680366516
v -83.37205505371094 33.52944564819336 3.73835921287537
v -83.36450958251953 33.7050895690918 3.65713214874268
v -83.35638427734375 33.86392593383789 3.54663348197937
v -83.34794616699219 34.00112915039062 3.41022086143494
v -83.33943176269531 34.11253356933594 3.25203919410706
v -83.33111572265625 34.19475555419922 3.07689428329468
v -83.32323455810547 34.24528884887695 2.89010834693909
v -83.31604766845703 34.26260757446289 2.69735646247864
v -83.30975341796875 34.24617767333984 2.50449562072754
v -83.30455780029297 34.19650268554688 2.31738519668579
v -83.30060577392578 34.11508941650391 2.14171123504639
v -83.29802703857422 34.00441360473633 1.98281073570251
v -83.29690551757812 33.86783981323242 1.84551239013672
v -83.29725646972656 33.70951461791992 1.73398756980896
v -83.29908752441406 33.53424835205078 1.65162515640259
v -83.30233001708984 33.34737014770508 1.60092747211456
v -83.30689239501953 33.1545524597168 1.58343517780304
v -83.31263732910156 32.9616584777832 1.59967958927155
v -83.31938171386719 32.7745475769043 1.64916706085205
v -83.32693481445312 32.59890747070312 1.73039424419403
v -83.33505249023438 32.44007110595703 1.84089279174805
v -83.34349822998047 32.3028678894043 1.97730541229248
v -83.35200500488281 32.19146347045898 2.13548707962036
v -83.36032867431641 32.1092414855957 2.31063199043274
v -83.36820220947266 32.05870819091797 2.49741792678833
v -83.37539672851562 32.04138946533203 2.69016981124878
v -83.38168334960938 32.05781936645508 2.88303089141846
v -83.38688659667969 32.10749435424805 3.07014107704163
v -83.39083099365234 32.18890762329102 3.24581527709961
v -83.39340972900391 32.29957962036133 3.4047155380249
v -83.39453887939453 32.4361572265625 3.5420138835907
v -83.39418029785156 32.594482421875 3.65353870391846
v -83.39235687255859 32.76974868774414 3.73590111732483
v -83.38910675048828 32.95662689208984 3.78659868240356
v -83.23348999023438 8.41610527038574 24.22903633117676
v -83.23348999023438 108.54588317871094 24.22903633117676
v 49.53216934204102 8.41610527038574 24.22903633117676
v 49.53216934204102 108.54588317871094 24.22903633117676
v 49.53216934204102 8.41610527038574 -24.22903633117676
v 49.53216934204102 108.54588317871094 -24.22903633117676
v -83.23348999023438 8.41610527038574 -24.22903633117676
v -83.23348999023438 108.54588317871094 -24.22903633117676
v -90.73348999023438 8.41610527038574 24.22903633117676
v -90.73348999023438 108.54588317871094 24.22903633117676
v -90.73348999023438 8.41610527038574 -24.22903633117676
v -90.73348999023438 108.54588317871094 -24.22903633117676
v -85.21974182128906 110.53213500976562 22.24278259277344
v -88.74723815917969 110.53213500976562 22.24278259277344
v -88.74723815917969 110.53213500976562 -22.24278259277344
v -85.21974182128906 110.53213500976562 -22.24278259277344
v -84.80105590820312 9.98367118835449 25.79660224914551
v -89.16592407226562 9.98367118835449 25.79660224914551
v -89.16592407226562 106.97831726074219 25.79660224914551
v -84.80105590820312 106.97831726074219 25.79660224914551
v -85.19003295898438 106.58933258056641 -26.18558311462402
v -88.77693939208984 106.58933258056641 -26.18558311462402
v -88.77693939208984 10.37265205383301 -26.18558311462402
v -85.19003295898438 10.37265205383301 -26.18558311462402
v -94.60208892822266 12.28470134735107 -20.36043930053711
v -94.60208892822266 104.67728424072266 -20.36043930053711
v -94.60208892822266 104.67728424072266 20.36043930053711
v -94.60208892822266 12.28470134735107 20.36043930053711
v -92.63274383544922 10.31536293029785 -22.32977867126465
v -92.63274383544922 106.64662170410156 -22.32977867126465
v -92.63274383544922 106.64662170410156 22.32977867126465
v -92.63274383544922 10.31536293029785 22.32977867126465
v -80.75218963623047 10.8974027633667 26.7103328704834
v -80.75218963623047 106.06458282470703 26.7103328704834
v 47.05086898803711 106.06458282470703 26.7103328704834
v 47.05086898803711 10.8974027633667 26.7103328704834
v 48.23514938354492 9.71312427520752 -25.52605438232422
v 48.23514938354492 107.24886322021484 -25.52605438232422
v -81.93647003173828 107.24886322021484 -25.52605438232422
v -81.93647003173828 9.71312427520752 -25.52605438232422
v 51.46991348266602 10.35384941101074 22.29129219055176
v 51.46991348266602 106.60813903808594 22.29129219055176
v 51.46991348266602 106.60813903808594 -22.29129219055176
v 51.46991348266602 10.35384941101074 -22.29129219055176
v 51.48085021972656 106.71967315673828 -22.4028263092041
v 49.67023086547852 108.49868774414062 24.25767135620117
v 51.48085021972656 106.71967315673828 22.4028263092041
v 51.46991348266602 10.40561294555664 22.43271255493164
v 49.60287857055664 8.5385799407959 24.29974555969238
v 47.19229125976562 10.9491662979126 26.7103328704834
v 47.19229125976562 106.0128173828125 26.7103328704834
v 49.60287857055664 8.5385799407959 -24.29974555969238
v 51.46991348266602 10.40561294555664 -22.43271255493164
v 49.67023086547852 108.49868774414062 -24.25767135620117
v 48.37657165527344 107.19709777832031 -25.52605438232422
v 48.37657165527344 9.76488780975342 -25.52605438232422
v -80.90518188476562 110.87419128417969 21.90072822570801
v -80.90518188476562 110.87419128417969 -21.90072822570801
v 47.20386123657227 110.87419128417969 -21.90072822570801
v 47.20386123657227 110.87419128417969 21.90072822570801
# 208 vertices

vn 0.99903219938278 -0.02680617384613 0.03487218171358
vn 0.99903213977814 -0.02680527418852 0.03487457707524
vn 0.99903190135956 -0.02681560069323 0.0348736718297
vn 0 0 0
vn -0.03494641557336 -0.00229918793775 0.99938654899597
vn -0.02977748960257 0.17132090032101 0.9847651720047
vn -0.99903213977814 0.02680527418852 -0.03487458080053
vn -0.99903213977814 0.02680870704353 -0.03487200289965
vn -0.99903190135956 0.02681522071362 -0.03487360477448
vn 0.99903231859207 -0.02680503390729 0.03487078845501
vn -0.02370342239738 0.3397351205349 0.94022244215012
vn -0.99903225898743 0.02680498734117 -0.03487091884017
vn 0.9990326166153 -0.02679777145386 0.03486781939864
vn -0.01691057533026 0.49782824516296 0.86711072921753
vn -0.99903255701065 0.02679811231792 -0.03486801683903
vn 0.99903321266174 -0.02678614482284 0.03485855832696
vn -0.00960423052311 0.64079511165619 0.76765185594559
vn -0.99903321266174 0.02678614854813 -0.03485855832696
vn 0.99903112649918 -0.02681496366858 0.03489620238543
vn -0.00200539873913 0.7642874121666 0.64487266540527
vn -0.99903112649918 0.02681496366858 -0.03489620238543
vn 0.9990326166153 -0.02680607885122 0.03486009687185
vn 0.00565660186112 0.86456000804901 0.50249779224396
vn -0.99903005361557 0.02683549933136 -0.03491075336933
vn 0.99903321266174 -0.02678770944476 0.03485792130232
vn 0.01314744912088 0.93856757879257 0.34484493732452
vn -0.99903291463852 0.02680682204664 -0.03485089540482
vn 0.99903202056885 -0.02680620923638 0.03487737849355
vn 0.02023417688906 0.98405295610428 0.17672127485275
vn -0.99903434514999 0.02679589763284 -0.03481969982386
vn 0.99903333187103 -0.02679547853768 0.03484814986587
vn 0.02670560404658 0.99963808059692 0.00323835969903
vn -0.99903333187103 0.02679547853768 -0.03484814986587
vn 0.99903237819672 -0.02679637260735 0.03487461805344
vn 0.03236830979586 0.9848513007164 -0.17035317420959
vn -0.99903237819672 0.02679637447 -0.03487460687757
vn 0.99903273582458 -0.02680030837655 0.03486126661301
vn 0.03704798966646 0.94013828039169 -0.33877351880074
vn -0.99903136491776 0.02678025513887 -0.03491676598787
vn 0.99903285503387 -0.026800442487 0.03485783189535
vn 0.04060398042202 0.86686211824417 -0.49689170718193
vn -0.99903106689453 0.02678902633488 -0.03491887450218
vn 0.99903243780136 -0.02677749469876 0.03488694131374
vn 0.04292540624738 0.76724767684937 -0.63991278409958
vn -0.99903213977814 0.02683095261455 -0.03485466912389
vn 0.99903225898743 -0.02679990790784 0.03487510234118
vn 0.04393984377384 0.64431697130203 -0.76349520683289
vn -0.99903237819672 0.02684503421187 -0.0348370410502
vn 0.99903255701065 -0.02681366354227 0.03485598042607
vn 0.0436195358634 0.5018098950386 -0.86387741565704
vn -0.99903255701065 0.02681360207498 -0.03485586494207
vn 0.99903285503387 -0.0267773475498 0.03487545251846
vn 0.04197373613715 0.34405833482742 -0.93800961971283
vn -0.99903285503387 0.02677698992193 -0.03487558662891
vn 0.99903279542923 -0.02677982673049 0.03487645089626
vn 0.03905314207077 0.17585152387619 -0.98364174365997
vn -0.99903273582458 0.02678021043539 -0.03487638011575
vn 0.03494641929865 0.0023003583774 -0.99938654899597
vn -0.99903213977814 0.02680526301265 -0.0348744392395
vn 0.99903190135956 -0.02681520953774 0.03487360104918
vn 0.02977727726102 -0.17132037878036 -0.98476529121399
vn -0.99903190135956 0.02681521326303 -0.03487360477448
vn 0.99903225898743 -0.02680498734117 0.03487091511488
vn 0.02370342239738 -0.3397351205349 -0.94022244215012
vn -0.99903231859207 0.02680503390729 -0.03487079590559
vn 0.99903255701065 -0.02679811231792 0.03486801683903
vn 0.01691060885787 -0.49782818555832 -0.86711078882217
vn -0.9990326166153 0.02679777704179 -0.03486782684922
vn 0.99903070926666 -0.02683144062757 0.03489633649588
vn 0.00960426032543 -0.64079529047012 -0.76765167713165
vn -0.99903070926666 0.02683144249022 -0.03489633649588
vn 0.99903118610382 -0.02683063223958 0.03488297760487
vn 0.00200537987985 -0.76428765058517 -0.64487236738205
vn -0.99903118610382 0.02683062851429 -0.03488297760487
vn 0.99903267621994 -0.02680587768555 0.03485974669456
vn -0.00565652456135 -0.86455988883972 -0.50249797105789
vn -0.9990326166153 0.02680608071387 -0.03486010432243
vn 0.99903291463852 -0.02680682204664 0.03485089167953
vn -0.01314723026007 -0.93856763839722 -0.34484475851059
vn -0.99903291463852 0.02680695429444 -0.03485085070133
vn 0.99903202056885 -0.02680627815425 0.03487776219845
vn -0.02023399807513 -0.98405277729034 -0.17672216892242
vn -0.99903202056885 0.02680620923638 -0.03487738221884
vn 0.99903070926666 -0.026816111058 0.0349070802331
vn -0.0267055593431 -0.99963808059692 -0.00323973991908
vn -0.99903070926666 0.026816111058 -0.03490708395839
vn 0.99903172254562 -0.02681656740606 0.03487809374928
vn -0.03236830979586 -0.9848513007164 0.17035320401192
vn -0.99903172254562 0.02681656740606 -0.03487810119987
vn 0.9990319609642 -0.02681958675385 0.03486820682883
vn -0.03704765066504 -0.94013786315918 0.33877462148666
vn -0.9990319609642 0.02681958675385 -0.03486821427941
vn 0.99903202056885 -0.0268184132874 0.03486768901348
vn -0.04060289636254 -0.86686158180237 0.49689275026321
vn -0.99903202056885 0.02681821584702 -0.03486803174019
vn 0.99903213977814 -0.02683094888926 0.0348546653986
vn -0.042924284935 -0.76724696159363 0.63991379737854
vn -0.99903213977814 0.02683105692267 -0.03485475480556
vn 0.99903225898743 -0.02679961547256 0.0348753631115
vn -0.04393821209669 -0.64431476593018 0.76349717378616
vn -0.99903225898743 0.02679991349578 -0.03487510979176
vn 0.99903202056885 -0.02677292376757 0.03490336239338
vn -0.04361777752638 -0.50181001424789 0.86387741565704
vn -0.99903166294098 0.02682395465672 -0.03487370163202
vn 0.99903124570847 -0.02683980762959 0.03487432748079
vn -0.04197359830141 -0.34405893087387 0.9380094408989
vn -0.99903208017349 0.02683276496828 -0.03485509753227
vn 0.99903160333633 -0.02683791331947 0.03486602008343
vn -0.03905327245593 -0.17584970593452 0.9836420416832
vn -0.99903279542923 0.02677982114255 -0.03487645089626
vn 0.99903219938278 -0.02680668234825 0.03487240895629
vn 0.99903208017349 -0.02681072242558 0.0348730944097
vn 0.99903219938278 -0.02680859901011 0.03487131744623
vn -0.99903208017349 0.02681071311235 -0.03487309813499
vn -0.99903219938278 0.02680668607354 -0.03487240895629
vn -0.99903219938278 0.02680859714746 -0.03487131744623
vn 0.99903225898743 -0.02680438384414 0.03487169742584
vn -0.99903225898743 0.02680438198149 -0.03487169742584
vn 0.99903208017349 -0.02680924534798 0.03487322479486
vn -0.99903208017349 0.02680923976004 -0.03487322479486
vn 0.99903249740601 -0.02680211141706 0.03486755490303
vn -0.99903249740601 0.02680210769176 -0.03486754745245
vn 0.99903231859207 -0.02680300734937 0.03487075120211
vn -0.99903231859207 0.02680300734937 -0.03487075120211
vn 0.99903178215027 -0.02681117877364 0.03488107398152
vn -0.99903178215027 0.02681117877364 -0.03488107398152
vn 0.99903208017349 -0.02680881135166 0.03487342596054
vn -0.99903208017349 0.02680881135166 -0.03487342596054
vn 0.99903219938278 -0.02680663764477 0.03487145900726
vn -0.99903219938278 0.02680663764477 -0.03487145528197
vn 0.99903213977814 -0.02680800482631 0.03487314656377
vn -0.99903213977814 0.0268080085516 -0.03487313911319
vn 0.99903243780136 -0.02680856175721 0.0348638035357
vn -0.99903243780136 0.02680856175721 -0.0348638035357
vn 0.99903225898743 -0.02680514380336 0.03487156331539
vn -0.99903225898743 0.02680514007807 -0.03487157076597
vn 0.99903208017349 -0.02680409140885 0.03487749770284
vn -0.99903208017349 0.02680408768356 -0.03487749397755
vn 0.99903219938278 -0.02680687606335 0.03487258031964
vn -0.99903219938278 0.02680687233806 -0.03487256914377
vn 0.99903219938278 -0.02680574730039 0.03487358242273
vn -0.99903219938278 0.02680574543774 -0.03487357497215
vn 0.99903213977814 -0.02680882439017 0.03487204760313
vn -0.99903213977814 0.02680881693959 -0.03487204015255
vn 0.99903219938278 -0.02680858969688 0.03487126529217
vn -0.99903219938278 0.02680857852101 -0.03487126529217
vn 0.99903225898743 -0.02680337056518 0.03487300872803
vn -0.99903225898743 0.02680335938931 -0.03487300872803
vn 0.99903208017349 -0.02681058645248 0.03487315028906
vn -0.99903208017349 0.02681058458984 -0.03487315028906
vn 0.99903219938278 -0.02680859901011 0.03487136214972
vn -0.99903219938278 0.02680859901011 -0.03487136587501
vn 0.99903225898743 -0.02680448815227 0.03487178310752
vn -0.99903225898743 0.02680448815227 -0.03487178683281
vn 0.99903208017349 -0.02680934779346 0.03487328439951
vn -0.99903208017349 0.02680934593081 -0.03487328439951
vn 0.99903249740601 -0.02680210396647 0.03486755117774
vn -0.99903249740601 0.02680210396647 -0.03486754745245
vn 0.99903231859207 -0.02680300362408 0.03487074375153
vn -0.99903231859207 0.02680300548673 -0.03487074747682
vn 0.99903225898743 -0.02680561505258 0.03487150371075
vn -0.99903225898743 0.02680561318994 -0.03487149998546
vn 0.99903213977814 -0.02680521085858 0.03487477079034
vn -0.99903213977814 0.02680520899594 -0.03487477079034
vn 0.99903178215027 -0.02680858969688 0.03488235548139
vn -0.99903178215027 0.02680858969688 -0.0348823517561
vn 0.99903213977814 -0.02680800482631 0.0348731353879
vn -0.99903213977814 0.02680800668895 -0.03487312793732
vn 0.99903243780136 -0.02680856175721 0.03486379608512
vn -0.99903243780136 0.02680856361985 -0.03486379235983
vn 0.99903225898743 -0.02680518105626 0.03487143665552
vn -0.99903225898743 0.02680518478155 -0.0348714441061
vn 0.99903208017349 -0.02680403552949 0.03487749397755
vn -0.99903208017349 0.02680403739214 -0.03487749397755
vn 0.99903219938278 -0.02680688723922 0.03487257286906
vn -0.99903219938278 0.02680688351393 -0.03487256169319
vn 0.99903219938278 -0.02680572494864 0.03487353399396
vn -0.99903219938278 0.02680572122335 -0.03487352654338
vn 0.99903213977814 -0.02680867910385 0.03487212210894
vn -0.99903213977814 0.0268086809665 -0.03487212210894
vn 0.99903219938278 -0.0268085822463 0.03487126529217
vn -0.99903219938278 0.02680858597159 -0.03487126901746
vn 0.99903225898743 -0.02680351957679 0.03487297147512
vn -0.99903225898743 0.02680351771414 -0.0348729789257
vn 0.99903219938278 -0.02680690959096 0.03487237170339
vn 0.99903208017349 -0.02680982090533 0.03487257286906
vn 0.99903237819672 -0.02680296637118 0.03487007692456
vn -0.99903208017349 0.02680982090533 -0.03487256914377
vn -0.99903219938278 0.02680690586567 -0.03487237915397
vn -0.99903237819672 0.02680296450853 -0.03487007319927
vn 0.99903279542923 -0.02679040655494 0.03486823290586
vn -0.99903279542923 0.02679040655494 -0.03486823290586
vn 0.99903178215027 -0.02681218087673 0.03488034009933
vn -0.99903178215027 0.02681218087673 -0.03488034009933
vn 0.99903208017349 -0.026809906587 0.03487321734428
vn -0.99903208017349 0.02680990472436 -0.03487321361899
vn 0.99903237819672 -0.02680188603699 0.03487154096365
vn -0.99903237819672 0.02680188789964 -0.03487154096365
vn 0.99903219938278 -0.02680650539696 0.03487183153629
vn -0.99903219938278 0.02680650912225 -0.03487183526158
vn 0.99903208017349 -0.02680482342839 0.03487695008516
vn -0.99903208017349 0.02680482342839 -0.03487695753574
vn 0.99903225898743 -0.02680768817663 0.03487008437514
vn -0.99903225898743 0.02680768631399 -0.03487008810043
vn 0.99903255701065 -0.02680262178183 0.03486470878124
vn -0.99903255701065 0.02680262364447 -0.03486470878124
vn 0.99903219938278 -0.02680529095232 0.03487292677164
vn -0.99903219938278 0.02680529095232 -0.03487292677164
vn 0.99903219938278 -0.02680165320635 0.03487518429756
vn -0.99903219938278 0.02680165693164 -0.03487518802285
vn 0.99903190135956 -0.02679874747992 0.03488665819168
vn -0.99903190135956 0.02679875120521 -0.03488666191697
vn 0.99903219938278 -0.02681567706168 0.03486455231905
vn -0.99903219938278 0.02681568451226 -0.03486455976963
vn 0.99903237819672 -0.02680809795856 0.03486613929272
vn -0.99903237819672 0.02680810168386 -0.0348661467433
vn 0.99903219938278 -0.02680389210582 0.03487415611744
vn -0.99903219938278 0.02680388838053 -0.03487414866686
vn 0.99903225898743 -0.02680786140263 0.03486906737089
vn -0.99903225898743 0.02680786326528 -0.03486906737089
vn 0.99903237819672 -0.02679859474301 0.03487316519022
vn -0.99903237819672 0.02679860033095 -0.03487316519022
vn 0.99903208017349 -0.02680979855359 0.03487247228622
vn -0.99903208017349 0.02680979855359 -0.03487247228622
vn 0.99903237819672 -0.02680273540318 0.03486993163824
vn -0.99903237819672 0.0268027279526 -0.03486993163824
vn 0.99903202056885 -0.02680897898972 0.03487490862608
vn -0.99903202056885 0.02680897898972 -0.03487490862608
vn 0.99903190135956 -0.02681586891413 0.0348744392395
vn -0.99903190135956 0.02681587263942 -0.0348744392395
vn 0.99903208017349 -0.02680997364223 0.03487314283848
vn -0.99903208017349 0.02680997736752 -0.03487314283848
vn 0.99903237819672 -0.02680720761418 0.03486705571413
vn -0.99903237819672 0.02680720761418 -0.03486705571413
vn 0.99903219938278 -0.02680659294128 0.03487178683281
vn -0.99903219938278 0.02680659107864 -0.03487178310752
vn 0.9990319609642 -0.02681135758758 0.03487455844879
vn -0.9990319609642 0.02681135758758 -0.03487455844879
vn 0.99903225898743 -0.02680778503418 0.03487007319927
vn -0.99903225898743 0.02680778689682 -0.03487007319927
vn 0.99903237819672 -0.0268095806241 0.03486466407776
vn -0.99903237819672 0.0268095806241 -0.03486466407776
vn 0.99903219938278 -0.02680538035929 0.03487293794751
vn -0.99903219938278 0.02680538222194 -0.0348729416728
vn 0.9990319609642 -0.02680820412934 0.03487756103277
vn -0.9990319609642 0.02680820040405 -0.03487754613161
vn 0.99903225898743 -0.02680880203843 0.03486935421824
vn -0.99903225898743 0.0268087964505 -0.03486935049295
vn 0.99903202056885 -0.02680301293731 0.03487974405289
vn -0.99903202056885 0.0268030166626 -0.03487974777818
vn 0.99903208017349 -0.02681238204241 0.0348716378212
vn -0.99903208017349 0.02681238204241 -0.03487163037062
vn 0.99903219938278 -0.0268039368093 0.03487424179912
vn -0.99903219938278 0.02680394053459 -0.03487423807383
vn 0.9990319609642 -0.02681023813784 0.03487559780478
vn -0.9990319609642 0.02681024558842 -0.03487559780478
vn 0.9990319609642 -0.02681806311011 0.03486977517605
vn -0.9990319609642 0.0268180668354 -0.03486977517605
vn 0 0 1
vn 1 0 0
vn 0 0 -1
vn -1 0 0
vn 0 1 0
vn 0 -1 0
vn 0 0.70710694789886 0.70710664987564
vn 0 0.7071071267128 0.70710647106171
vn -0.70710676908493 0.70710676908493 0
vn 0 0.707106590271 -0.70710694789886
vn 0 0.7071071267128 -0.70710647106171
vn 0.70710676908493 0.70710676908493 0
vn 0 -0.70710676908493 0.70710676908493
vn -0.70710670948029 0 0.70710688829422
vn -0.70710676908493 0 0.70710676908493
vn 0 0.70710676908493 0.70710676908493
vn 0.70710676908493 0 0.70710676908493
vn 0 0.70710611343384 -0.70710748434067
vn -0.70710635185242 0 -0.70710718631744
vn -0.70710611343384 0 -0.70710748434067
vn 0 -0.70710676908493 -0.70710676908493
vn 0.70710742473602 0 -0.70710611343384
vn -0.707106590271 0 -0.70710694789886
vn -0.707106590271 0 0.70710694789886
vn -0.70710653066635 -0.70710700750351 0
vn 0.70710575580597 0 0.70710778236389
vn 0.7071053981781 -0.7071081995964 0
vn 0.70710575580597 0 -0.70710778236389
vn 0.70710557699203 0.70710802078247 0
vn -0.70710623264313 0 0.70710730552673
vn 0 0.70710653066635 0.70710706710815
vn 0 0.70710629224777 0.70710730552673
vn 0.70839291810989 -0.00005459718886 0.70581835508347
vn 0.70533609390259 -0.00008747042739 0.70887303352356
vn 0 -0.70710664987564 0.70710694789886
vn 0.70743304491043 -0.00005690338367 -0.70678037405014
vn 0.70356565713882 -0.00008935966616 -0.71063029766083
vn 0 0.70710653066635 -0.70710700750351
vn 0 0.70710623264313 -0.70710730552673
vn -0.70710623264313 0 -0.70710730552673
vn 0 -0.70710653066635 -0.70710706710815
vn 0.71143645048141 -0.0000217229408 0.70275044441223
vn 0.70085394382477 0.71330481767654 0
vn 0.71127939224243 -0.00002444539678 -0.70290940999985
vn 0.70710676908493 -0.70710676908493 0
vn 0.11173159629107 -0.30525073409081 0.94569444656372
vn 0.21132791042328 -0.57734787464142 0.78867608308792
vn 0.07561710476875 0.330875903368 0.94063979387283
vn 0.14225690066814 0.62247002124786 0.76960641145706
vn 0.07530623674393 0.32949924468994 -0.94114780426025
vn 0.14174860715866 0.62021499872208 -0.77151840925217
vn 0.1117318123579 -0.30525061488152 -0.94569450616837
vn 0.21132831275463 -0.57734763622284 -0.78867614269257
vn 0.94804394245148 -0.30624297261238 0.08618528395891
vn 0.99850451946259 -0.04889590293169 -0.0244525372982
vn 0.78867626190186 -0.57734698057175 0.21132969856262
vn 0.99850475788116 -0.04890330135822 0.02442725561559
vn 0.32346591353416 0.94623982906342 0
vn 0.94803959131241 -0.30624914169312 -0.08621137589216
vn 0.78867620229721 -0.57734715938568 -0.2113294005394
vn 0 0.70710676908493 -0.70710676908493
vn 0.70710676908493 0.70710676908493 0
vn 0 0.70710676908493 0.70710676908493
# 321 normals

vt 0.5 0.5 0
vt 0 0.5 0
vt 0.00759612349793 0.58682411909103 0
vt 0 0 0
vt 0 1 0
vt 0.02777777798474 1 0
vt 0.02777777798474 0 0
vt 1 0.5 0
vt 0.99240386486053 0.58682411909103 0
vt 0.030153689906 0.67101007699966 0
vt 0.05555555596948 1 0
vt 0.05555555596948 0 0
vt 0.96984630823135 0.67101007699966 0
vt 0.06698729842901 0.75 0
vt 0.08333333581686 1 0
vt 0.08333333581686 0 0
vt 0.93301272392273 0.75 0
vt 0.11697778105736 0.82139384746552 0
vt 0.11111111193895 1 0
vt 0.11111111193895 0 0
vt 0.88302224874496 0.82139384746552 0
vt 0.17860619723797 0.88302218914032 0
vt 0.13888889551163 1 0
vt 0.13888889551163 0 0
vt 0.82139378786087 0.88302218914032 0
vt 0.25 0.93301272392273 0
vt 0.16666667163372 1 0
vt 0.16666667163372 0 0
vt 0.75 0.93301272392273 0
vt 0.32898992300034 0.96984630823135 0
vt 0.19444444775581 1 0
vt 0.19444444775581 0 0
vt 0.67101007699966 0.96984630823135 0
vt 0.41317591071129 0.99240386486053 0
vt 0.22222222387791 1 0
vt 0.22222222387791 0 0
vt 0.58682405948639 0.99240386486053 0
vt 0.5 1 0
vt 0.25 1 0
vt 0.25 0 0
vt 0.27777779102325 1 0
vt 0.27777779102325 0 0
vt 0.30555555224419 1 0
vt 0.30555555224419 0 0
vt 0.33333334326744 1 0
vt 0.33333334326744 0 0
vt 0.36111110448837 1 0
vt 0.36111110448837 0 0
vt 0.38888889551163 1 0
vt 0.38888889551163 0 0
vt 0.41666665673256 1 0
vt 0.41666665673256 0 0
vt 0.44444444775581 1 0
vt 0.44444444775581 0 0
vt 0.47222220897675 1 0
vt 0.47222220897675 0 0
vt 0.5 0 0
vt 0.99240386486053 0.41317594051361 0
vt 0.52777779102325 1 0
vt 0.52777779102325 0 0
vt 0.00759612349793 0.41317594051361 0
vt 0.96984630823135 0.32898998260498 0
vt 0.55555558204651 1 0
vt 0.55555558204651 0 0
vt 0.030153689906 0.32898998260498 0
vt 0.93301272392273 0.25 0
vt 0.58333331346512 1 0
vt 0.58333331346512 0 0
vt 0.06698729842901 0.25 0
vt 0.88302224874496 0.17860627174377 0
vt 0.61111110448837 1 0
vt 0.61111110448837 0 0
vt 0.11697778105736 0.17860627174377 0
vt 0.82139378786087 0.11697781085968 0
vt 0.63888889551163 1 0
vt 0.63888889551163 0 0
vt 0.17860619723797 0.11697781085968 0
vt 0.75 0.06698727607727 0
vt 0.66666668653488 1 0
vt 0.66666668653488 0 0
vt 0.25 0.06698727607727 0
vt 0.67101007699966 0.03015375137329 0
vt 0.69444441795349 1 0
vt 0.69444441795349 0 0
vt 0.32898992300034 0.03015375137329 0
vt 0.58682405948639 0.00759613513947 0
vt 0.72222220897675 1 0
vt 0.72222220897675 0 0
vt 0.41317591071129 0.00759613513947 0
vt 0.75 1 0
vt 0.75 0 0
vt 0.77777779102325 1 0
vt 0.77777779102325 0 0
vt 0.80555558204651 1 0
vt 0.80555558204651 0 0
vt 0.83333331346512 1 0
vt 0.83333331346512 0 0
vt 0.86111110448837 1 0
vt 0.86111110448837 0 0
vt 0.88888889551163 1 0
vt 0.88888889551163 0 0
vt 0.91666668653488 1 0
vt 0.91666668653488 0 0
vt 0.94444441795349 1 0
vt 0.94444441795349 0 0
vt 0.97222220897675 1 0
vt 0.97222220897675 0 0
vt 1 1 0
vt 1 0 0
vt 0.0208978895098 0.02089786529541 0
vt 0.0208978895098 0.97910213470459 0
vt 0.97910213470459 0.97910213470459 0
vt 0.97910213470459 0.02089786529541 0
vt 0.02326826937497 0.02326834201813 0
vt 0.02326826937497 0.97673171758652 0
vt 0.97673171758652 0.97673171758652 0
vt 0.97673171758652 0.02326834201813 0
vt 0.01092370226979 0.01092374324799 0
vt 0.01092370226979 0.98907631635666 0
vt 0.98907631635666 0.98907631635666 0
vt 0.98907631635666 0.01092374324799 0
vt 0.04645378142595 0.04645383358002 0
vt 0.04645378142595 0.95354622602463 0
vt 0.95354622602463 0.95354622602463 0
vt 0.95354622602463 0.04645383358002 0
vt 0.02112372964621 0.02112376689911 0
vt 0.02112372964621 0.97887629270554 0
vt 0.97887629270554 0.97887629270554 0
vt 0.97887629270554 0.02112376689911 0
vt 1 0.01673412322998 0
vt 1 0.98326593637466 0
vt 0.95377421379089 1 0
vt 0.04622580856085 1 0
vt 0 0.9791134595871 0
vt 0 0.0208865404129 0
vt 1 0.00122320652008 0
vt 0.97911429405212 0.02145540714264 0
vt 0.97911429405212 0.97854453325272 0
vt 0.01091769617051 0.98853850364685 0
vt 0.01091769617051 0.01146161556244 0
vt 0 0.00122320652008 0
vt 0.02241918072104 0.97758084535599 0
vt 0.02325507812202 0.02380883693695 0
vt 0.97758078575134 0.97758084535599 0
vt 0.97674489021301 0.02380883693695 0
# 145 texture coordinates

o cpu
usemtl led
f 5/3/3 3/2/2 1/1/1
f 5/7/6 6/6/6 4/5/5 3/4/5
f 6/9/9 2/1/8 4/8/7
f 7/10/10 5/3/3 1/1/1
f 7/12/11 8/11/11 6/6/6 5/7/6
f 8/13/12 2/1/8 6/9/9
f 9/14/13 7/10/10 1/1/1
f 9/16/14 10/15/14 8/11/11 7/12/11
f 10/17/15 2/1/8 8/13/12
f 11/18/16 9/14/13 1/1/1
f 11/20/17 12/19/17 10/15/14 9/16/14
f 12/21/18 2/1/8 10/17/15
f 13/22/19 11/18/16 1/1/1
f 13/24/20 14/23/20 12/19/17 11/20/17
f 14/25/21 2/1/8 12/21/18
f 15/26/22 13/22/19 1/1/1
f 15/28/23 16/27/23 14/23/20 13/24/20
f 16/29/24 2/1/8 14/25/21
f 17/30/25 15/26/22 1/1/1
f 17/32/26 18/31/26 16/27/23 15/28/23
f 18/33/27 2/1/8 16/29/24
f 19/34/28 17/30/25 1/1/1
f 19/36/29 20/35/29 18/31/26 17/32/26
f 20/37/30 2/1/8 18/33/27
f 21/38/31 19/34/28 1/1/1
f 21/40/32 22/39/32 20/35/29 19/36/29
f 22/38/33 2/1/8 20/37/30
f 23/37/34 21/38/31 1/1/1
f 23/42/35 24/41/35 22/39/32 21/40/32
f 24/34/36 2/1/8 22/38/33
f 25/33/37 23/37/34 1/1/1
f 25/44/38 26/43/38 24/41/35 23/42/35
f 26/30/39 2/1/8 24/34/36
f 27/29/40 25/33/37 1/1/1
f 27/46/41 28/45/41 26/43/38 25/44/38
f 28/26/42 2/1/8 26/30/39
f 29/25/43 27/29/40 1/1/1
f 29/48/44 30/47/44 28/45/41 27/46/41
f 30/22/45 2/1/8 28/26/42
f 31/21/46 29/25/43 1/1/1
f 31/50/47 32/49/47 30/47/44 29/48/44
f 32/18/48 2/1/8 30/22/45
f 33/17/49 31/21/46 1/1/1
f 33/52/50 34/51/50 32/49/47 31/50/47
f 34/14/51 2/1/8 32/18/48
f 35/13/52 33/17/49 1/1/1
f 35/54/53 36/53/53 34/51/50 33/52/50
f 36/10/54 2/1/8 34/14/51
f 37/9/55 35/13/52 1/1/1
f 37/56/56 38/55/56 36/53/53 35/54/53
f 38/3/57 2/1/8 36/10/54
f 39/8/2 37/9/55 1/1/1
f 39/57/58 40/38/58 38/55/56 37/56/56
f 40/2/59 2/1/8 38/3/57
f 41/58/60 39/8/2 1/1/1
f 41/60/61 42/59/61 40/38/58 39/57/58
f 42/61/62 2/1/8 40/2/59
f 43/62/63 41/58/60 1/1/1
f 43/64/64 44/63/64 42/59/61 41/60/61
f 44/65/65 2/1/8 42/61/62
f 45/66/66 43/62/63 1/1/1
f 45/68/67 46/67/67 44/63/64 43/64/64
f 46/69/68 2/1/8 44/65/65
f 47/70/69 45/66/66 1/1/1
f 47/72/70 48/71/70 46/67/67 45/68/67
f 48/73/71 2/1/8 46/69/68
f 49/74/72 47/70/69 1/1/1
f 49/76/73 50/75/73 48/71/70 47/72/70
f 50/77/74 2/1/8 48/73/71
f 51/78/75 49/74/72 1/1/1
f 51/80/76 52/79/76 50/75/73 49/76/73
f 52/81/77 2/1/8 50/77/74
f 53/82/78 51/78/75 1/1/1
f 53/84/79 54/83/79 52/79/76 51/80/76
f 54/85/80 2/1/8 52/81/77
f 55/86/81 53/82/78 1/1/1
f 55/88/82 56/87/82 54/83/79 53/84/79
f 56/89/83 2/1/8 54/85/80
f 57/57/84 55/86/81 1/1/1
f 57/91/85 58/90/85 56/87/82 55/88/82
f 58/57/86 2/1/8 56/89/83
f 59/89/87 57/57/84 1/1/1
f 59/93/88 60/92/88 58/90/85 57/91/85
f 60/86/89 2/1/8 58/57/86
f 61/85/90 59/89/87 1/1/1
f 61/95/91 62/94/91 60/92/88 59/93/88
f 62/82/92 2/1/8 60/86/89
f 63/81/93 61/85/90 1/1/1
f 63/97/94 64/96/94 62/94/91 61/95/91
f 64/78/95 2/1/8 62/82/92
f 65/77/96 63/81/93 1/1/1
f 65/99/97 66/98/97 64/96/94 63/97/94
f 66/74/98 2/1/8 64/78/95
f 67/73/99 65/77/96 1/1/1
f 67/101/100 68/100/100 66/98/97 65/99/97
f 68/70/101 2/1/8 66/74/98
f 69/69/102 67/73/99 1/1/1
f 69/103/103 70/102/103 68/100/100 67/101/100
f 70/66/104 2/1/8 68/70/101
f 71/65/105 69/69/102 1/1/1
f 71/105/106 72/104/106 70/102/103 69/103/103
f 72/62/107 2/1/8 70/66/104
f 73/61/108 71/65/105 1/1/1
f 73/107/109 74/106/109 72/104/106 71/105/106
f 74/58/110 2/1/8 72/62/107
f 3/2/2 73/61/108 1/1/1
f 3/109/5 4/108/5 74/106/109 73/107/109
f 4/8/7 2/1/8 74/58/110

usemtl power
f 77/9/113 76/8/112 75/1/111
f 77/7/4 76/4/4 76/4/4
f 77/9/116 75/1/115 76/8/114
f 78/13/117 77/9/113 75/1/111
f 78/12/4 77/7/4 77/7/4
f 78/13/118 75/1/115 77/9/116
f 79/17/119 78/13/117 75/1/111
f 79/16/4 78/12/4 78/12/4
f 79/17/120 75/1/115 78/13/118
f 80/21/121 79/17/119 75/1/111
f 80/20/4 79/16/4 79/16/4
f 80/21/122 75/1/115 79/17/120
f 81/25/123 80/21/121 75/1/111
f 81/24/4 80/20/4 80/20/4
f 81/25/124 75/1/115 80/21/122
f 82/29/125 81/25/123 75/1/111
f 82/28/4 81/24/4 81/24/4
f 82/29/126 75/1/115 81/25/124
f 83/33/127 82/29/125 75/1/111
f 83/32/4 82/28/4 82/28/4
f 83/33/128 75/1/115 82/29/126
f 84/37/129 83/33/127 75/1/111
f 84/36/4 83/32/4 83/32/4
f 84/37/130 75/1/115 83/33/128
f 85/38/131 84/37/129 75/1/111
f 85/40/4 84/36/4 84/36/4
f 85/38/132 75/1/115 84/37/130
f 86/34/133 85/38/131 75/1/111
f 86/42/4 85/40/4 85/40/4
f 86/34/134 75/1/115 85/38/132
f 87/30/135 86/34/133 75/1/111
f 87/44/4 86/42/4 86/42/4
f 87/30/136 75/1/115 86/34/134
f 88/26/137 87/30/135 75/1/111
f 88/46/4 87/44/4 87/44/4
f 88/26/138 75/1/115 87/30/136
f 89/22/139 88/26/137 75/1/111
f 89/48/4 88/46/4 88/46/4
f 89/22/140 75/1/115 88/26/138
f 90/18/141 89/22/139 75/1/111
f 90/50/4 89/48/4 89/48/4
f 90/18/142 75/1/115 89/22/140
f 91/14/143 90/18/141 75/1/111
f 91/52/4 90/50/4 90/50/4
f 91/14/144 75/1/115 90/18/142
f 92/10/145 91/14/143 75/1/111
f 92/54/4 91/52/4 91/52/4
f 92/10/146 75/1/115 91/14/144
f 93/3/147 92/10/145 75/1/111
f 93/56/4 92/54/4 92/54/4
f 93/3/148 75/1/115 92/10/146
f 94/2/149 93/3/147 75/1/111
f 94/57/4 93/56/4 93/56/4
f 94/2/150 75/1/115 93/3/148
f 95/61/151 94/2/149 75/1/111
f 95/60/4 94/57/4 94/57/4
f 95/61/152 75/1/115 94/2/150
f 96/65/153 95/61/151 75/1/111
f 96/64/4 95/60/4 95/60/4
f 96/65/154 75/1/115 95/61/152
f 97/69/155 96/65/153 75/1/111
f 97/68/4 96/64/4 96/64/4
f 97/69/156 75/1/115 96/65/154
f 98/73/157 97/69/155 75/1/111
f 98/72/4 97/68/4 97/68/4
f 98/73/158 75/1/115 97/69/156
f 99/77/159 98/73/157 75/1/111
f 99/76/4 98/72/4 98/72/4
f 99/77/160 75/1/115 98/73/158
f 100/81/161 99/77/159 75/1/111
f 100/80/4 99/76/4 99/76/4
f 100/81/162 75/1/115 99/77/160
f 101/85/163 100/81/161 75/1/111
f 101/84/4 100/80/4 100/80/4
f 101/85/164 75/1/115 100/81/162
f 102/89/165 101/85/163 75/1/111
f 102/88/4 101/84/4 101/84/4
f 102/89/166 75/1/115 101/85/164
f 103/57/167 102/89/165 75/1/111
f 103/91/4 102/88/4 102/88/4
f 103/57/168 75/1/115 102/89/166
f 104/86/169 103/57/167 75/1/111
f 104/93/4 103/91/4 103/91/4
f 104/86/170 75/1/115 103/57/168
f 105/82/171 104/86/169 75/1/111
f 105/95/4 104/93/4 104/93/4
f 105/82/172 75/1/115 104/86/170
f 106/78/173 105/82/171 75/1/111
f 106/97/4 105/95/4 105/95/4
f 106/78/174 75/1/115 105/82/172
f 107/74/175 106/78/173 75/1/111
f 107/99/4 106/97/4 106/97/4
f 107/74/176 75/1/115 106/78/174
f 108/70/177 107/74/175 75/1/111
f 108/101/4 107/99/4 107/99/4
f 108/70/178 75/1/115 107/74/176
f 109/66/179 108/70/177 75/1/111
f 109/103/4 108/101/4 108/101/4
f 109/66/180 75/1/115 108/70/178
f 110/62/181 109/66/179 75/1/111
f 110/105/4 109/103/4 109/103/4
f 110/62/182 75/1/115 109/66/180
f 111/58/183 110/62/181 75/1/111
f 111/107/4 110/105/4 110/105/4
f 111/58/184 75/1/115 110/62/182
f 76/8/112 111/58/183 75/1/111
f 76/109/4 111/107/4 111/107/4
f 76/8/114 75/1/115 111/58/184
f 114/9/187 113/8/186 112/1/185
f 114/7/4 113/4/4 113/4/4
f 114/9/190 112/1/189 113/8/188
f 115/13/191 114/9/187 112/1/185
f 115/12/4 114/7/4 114/7/4
f 115/13/192 112/1/189 114/9/190
f 116/17/193 115/13/191 112/1/185
f 116/16/4 115/12/4 115/12/4
f 116/17/194 112/1/189 115/13/192
f 117/21/195 116/17/193 112/1/185
f 117/20/4 116/16/4 116/16/4
f 117/21/196 112/1/189 116/17/194
f 118/25/197 117/21/195 112/1/185
f 118/24/4 117/20/4 117/20/4
f 118/25/198 112/1/189 117/21/196
f 119/29/199 118/25/197 112/1/185
f 119/28/4 118/24/4 118/24/4
f 119/29/200 112/1/189 118/25/198
f 120/33/201 119/29/199 112/1/185
f 120/32/4 119/28/4 119/28/4
f 120/33/202 112/1/189 119/29/200
f 121/37/203 120/33/201 112/1/185
f 121/36/4 120/32/4 120/32/4
f 121/37/204 112/1/189 120/33/202
f 122/38/205 121/37/203 112/1/185
f 122/40/4 121/36/4 121/36/4
f 122/38/206 112/1/189 121/37/204
f 123/34/207 122/38/205 112/1/185
f 123/42/4 122/40/4 122/40/4
f 123/34/208 112/1/189 122/38/206
f 124/30/209 123/34/207 112/1/185
f 124/44/4 123/42/4 123/42/4
f 124/30/210 112/1/189 123/34/208
f 125/26/211 124/30/209 112/1/185
f 125/46/4 124/44/4 124/44/4
f 125/26/212 112/1/189 124/30/210
f 126/22/213 125/26/211 112/1/185
f 126/48/4 125/46/4 125/46/4
f 126/22/214 112/1/189 125/26/212
f 127/18/215 126/22/213 112/1/185
f 127/50/4 126/48/4 126/48/4
f 127/18/216 112/1/189 126/22/214
f 128/14/217 127/18/215 112/1/185
f 128/52/4 127/50/4 127/50/4
f 128/14/218 112/1/189 127/18/216
f 129/10/219 128/14/217 112/1/185
f 129/54/4 128/52/4 128/52/4
f 129/10/220 112/1/189 128/14/218
f 130/3/221 129/10/219 112/1/185
f 130/56/4 129/54/4 129/54/4
f 130/3/222 112/1/189 129/10/220
f 131/2/223 130/3/221 112/1/185
f 131/57/4 130/56/4 130/56/4
f 131/2/224 112/1/189 130/3/222
f 132/61/225 131/2/223 112/1/185
f 132/60/4 131/57/4 131/57/4
f 132/61/226 112/1/189 131/2/224
f 133/65/227 132/61/225 112/1/185
f 133/64/4 132/60/4 132/60/4
f 133/65/228 112/1/189 132/61/226
f 134/69/229 133/65/227 112/1/185
f 134/68/4 133/64/4 133/64/4
f 134/69/230 112/1/189 133/65/228
f 135/73/231 134/69/229 112/1/185
f 135/72/4 134/68/4 134/68/4
f 135/73/232 112/1/189 134/69/230
f 136/77/233 135/73/231 112/1/185
f 136/76/4 135/72/4 135/72/4
f 136/77/234 112/1/189 135/73/232
f 137/81/235 136/77/233 112/1/185
f 137/80/4 136/76/4 136/76/4
f 137/81/236 112/1/189 136/77/234
f 138/85/237 137/81/235 112/1/185
f 138/84/4 137/80/4 137/80/4
f 138/85/238 112/1/189 137/81/236
f 139/89/239 138/85/237 112/1/185
f 139/88/4 138/84/4 138/84/4
f 139/89/240 112/1/189 138/85/238
f 140/57/241 139/89/239 112/1/185
f 140/91/4 139/88/4 139/88/4
f 140/57/242 112/1/189 139/89/240
f 141/86/243 140/57/241 112/1/185
f 141/93/4 140/91/4 140/91/4
f 141/86/244 112/1/189 140/57/242
f 142/82/245 141/86/243 112/1/185
f 142/95/4 141/93/4 141/93/4
f 142/82/246 112/1/189 141/86/244
f 143/78/247 142/82/245 112/1/185
f 143/97/4 142/95/4 142/95/4
f 143/78/248 112/1/189 142/82/246
f 144/74/249 143/78/247 112/1/185
f 144/99/4 143/97/4 143/97/4
f 144/74/250 112/1/189 143/78/248
f 145/70/251 144/74/249 112/1/185
f 145/101/4 144/99/4 144/99/4
f 145/70/252 112/1/189 144/74/250
f 146/66/253 145/70/251 112/1/185
f 146/103/4 145/101/4 145/101/4
f 146/66/254 112/1/189 145/70/252
f 147/62/255 146/66/253 112/1/185
f 147/105/4 146/103/4 146/103/4
f 147/62/256 112/1/189 146/66/254
f 148/58/257 147/62/255 112/1/185
f 148/107/4 147/105/4 147/105/4
f 148/58/258 112/1/189 147/62/256
f 113/8/186 148/58/257 112/1/185
f 113/109/4 148/107/4 148/107/4
f 113/8/188 112/1/189 148/58/258

usemtl side1
f 184/113/259 183/112/259 182/111/259 181/110/259
f 149/4/288 181/110/288 182/111/288 150/5/288
f 150/5/289 182/111/290 183/112/290 152/108/289
f 151/109/293 184/113/293 181/110/293 149/4/293
f 184/113/4 151/109/4 151/109/4 184/113/4
f 183/112/4 184/113/4 184/113/4 183/112/4
f 152/108/4 183/112/4 183/112/4 152/108/4

usemtl backpanel cpu
f 192/117/260 191/116/260 190/115/260 189/114/260
f 153/109/303 192/117/303 189/114/303 151/4/303
f 189/114/4 190/115/4 190/115/4 189/114/4
f 151/4/4 189/114/4 189/114/4 151/4/4
f 190/115/4 191/116/4 191/116/4 190/115/4
f 154/108/4 152/5/4 152/5/4 154/108/4
f 192/117/4 153/109/4 153/109/4 192/117/4
f 191/116/4 192/117/4 192/117/4 191/116/4

usemtl side2
f 188/121/261 187/120/261 186/119/261 185/118/261
f 154/5/296 186/119/297 187/120/297 156/108/296
f 156/108/298 187/120/298 188/121/298 155/109/298
f 155/109/299 188/121/299 185/118/299 153/4/299
f 186/119/4 154/5/4 154/5/4 186/119/4
f 185/118/4 186/119/4 186/119/4 185/118/4
f 153/4/4 185/118/4 185/118/4 153/4/4

usemtl cpu front
f 180/125/262 179/124/262 178/123/262 177/122/262
f 159/4/277 173/122/281 174/123/281 160/5/277
f 160/5/267 174/123/267 175/124/267 158/108/267
f 158/108/272 175/124/282 176/125/282 157/109/272
f 157/109/283 176/125/283 173/122/283 159/4/283
f 173/122/284 177/122/284 178/123/284 174/123/284
f 174/123/285 178/123/285 179/124/285 175/124/285
f 175/124/286 179/124/286 180/125/286 176/125/286
f 176/125/287 180/125/287 177/122/287 173/122/287

usemtl blackcote
f 208/129/263 207/128/263 206/127/263 205/126/263
f 149/109/264 157/109/264 159/4/264 155/4/264
f 168/131/259 167/131/259 166/130/259 165/130/259
f 164/133/263 163/133/263 162/132/263 161/132/263
f 172/135/261 171/135/261 170/134/261 169/134/261
f 150/108/265 161/132/266 162/132/266 158/108/265
f 158/108/267 162/132/267 163/133/267 160/5/267
f 160/5/268 163/133/269 164/133/269 156/5/268
f 156/5/270 164/133/270 161/132/270 150/108/270
f 149/109/271 165/130/271 166/130/271 157/109/271
f 157/109/272 166/130/273 167/131/273 158/108/272
f 158/108/265 167/131/274 168/131/274 150/108/265
f 150/108/275 168/131/275 165/130/275 149/109/275
f 156/5/268 169/134/276 170/134/276 160/5/268
f 160/5/277 170/134/278 171/135/278 159/4/277
f 159/4/279 171/135/279 172/135/279 155/4/279
f 155/4/280 172/135/280 169/134/280 156/5/280
f 194/108/291 199/138/292 198/137/292 197/136/291
f 200/141/294 204/140/295 203/139/295 202/5/294
f 197/141/291 196/143/300 195/142/300 194/5/291
f 194/5/301 195/142/301 193/144/301 202/108/301
f 202/108/294 193/144/302 201/145/302 200/136/294
f 151/109/305 197/136/305 198/137/304 184/113/304
f 184/113/304 198/137/304 199/138/306 183/112/306
f 183/112/306 199/138/306 194/108/307 152/108/307
f 154/5/309 202/5/309 203/139/308 186/119/308
f 186/119/308 203/139/308 204/140/310 185/118/310
f 185/118/310 204/140/310 200/141/311 153/4/311
f 190/115/313 195/142/313 196/143/312 189/114/312
f 189/114/312 196/143/312 197/141/314 151/4/314
f 191/116/315 193/144/315 195/142/313 190/115/313
f 152/5/316 194/5/316 202/108/316 154/108/316
f 153/109/318 200/136/318 201/145/317 192/117/317
f 192/117/317 201/145/317 193/144/315 191/116/315
f 150/4/267 205/126/267 206/127/267 156/5/267
f 156/5/296 206/127/319 207/128/319 154/108/296
f 154/108/320 207/128/320 208/129/320 152/109/320
f 152/109/289 208/129/321 205/126/321 150/4/289

usemtl ash coating
f 153/109/264 151/108/264 149/5/264 155/4/264

